<?xml version="1.0" standalone="no"?>
<!DOCTYPE svg PUBLIC "-//W3C//DTD SVG 20010904//EN"
 "http://www.w3.org/TR/2001/REC-SVG-20010904/DTD/svg10.dtd">
<svg version="1.0" xmlns="http://www.w3.org/2000/svg"
 width="260.000000pt" height="260.000000pt" viewBox="0 0 260.000000 260.000000"
 preserveAspectRatio="xMidYMid meet">
<metadata>
Created by potrace 1.11, written by Peter Selinger 2001-2013
</metadata>
<g transform="translate(0.000000,260.000000) scale(0.100000,-0.100000)"
fill="#000000" stroke="none">
<path d="M1091 2574 c-530 -89 -961 -517 -1056 -1049 -23 -129 -22 -343 3
-471 103 -524 492 -914 1027 -1030 111 -24 379 -24 490 0 268 58 486 175 670
360 189 190 301 400 354 663 26 126 28 347 6 479 -67 384 -322 730 -675 918
-108 57 -268 111 -390 131 -116 18 -315 18 -429 -1z m504 -228 c725 -212 1030
-1039 612 -1661 -53 -78 -175 -204 -258 -265 -373 -278 -905 -277 -1279 0 -83
61 -212 196 -263 273 -245 370 -244 838 1 1207 136 204 343 359 581 434 126
40 171 45 351 42 143 -3 177 -7 255 -30z"/>
<path d="M757 1863 c-4 -3 -7 -63 -7 -133 l0 -127 113 38 c288 97 623 96 890
-2 45 -17 90 -33 100 -36 16 -5 17 4 15 128 l-3 134 -551 3 c-303 1 -554 -1
-557 -5z"/>
<path d="M1195 1565 c-5 -2 -27 -6 -47 -10 l-38 -6 0 -109 0 -109 58 27 c81
37 213 43 294 13 167 -64 215 -284 85 -397 -65 -58 -119 -69 -327 -69 -188 0
-308 17 -430 60 l-40 14 0 -124 0 -125 343 0 c377 1 459 9 555 56 74 36 146
110 180 182 24 51 26 69 27 167 0 106 -1 113 -34 180 -85 172 -249 256 -500
254 -64 0 -120 -2 -126 -4z"/>
</g>
</svg>
