<?xml version="1.0" encoding="utf-8"?>
<!-- Generator: Adobe Illustrator 16.0.3, SVG Export Plug-In . SVG Version: 6.00 Build 0)  -->
<!DOCTYPE svg PUBLIC "-//W3C//DTD SVG 1.1//EN" "http://www.w3.org/Graphics/SVG/1.1/DTD/svg11.dtd" [
	<!ENTITY st0 "fill:#1B1C20;">
]>
<svg version="1.1" id="Layer_1" xmlns="http://www.w3.org/2000/svg" xmlns:xlink="http://www.w3.org/1999/xlink" x="0px" y="0px"
	 width="24px" height="24px" viewBox="0 0 24 24" style="enable-background:new 0 0 24 24;" xml:space="preserve">
<path style="&st0;" d="M16.859,17.913c-2.897,0-3.573-1.259-4.021-2.092c-0.281-0.521-0.363-0.625-0.678-0.626
	c-0.315,0.001-0.397,0.104-0.678,0.626c-0.448,0.833-1.125,2.092-4.021,2.092l-0.143-0.001c-1.31-0.019-2.36-0.461-3.121-1.315
	c-1.553-1.743-1.286-4.566-1.274-4.686c0.031-0.236,0.81-5.394,9.216-5.705h0.006c0.003,0,0.007,0,0.01,0.001V6.205v0.002
	c0.007,0,0.014,0,0.021,0V6.206v0.001c8.413,0.325,9.19,5.468,9.219,5.687c0.014,0.137,0.281,2.96-1.272,4.703
	c-0.761,0.854-1.812,1.297-3.121,1.315L16.859,17.913z M12.162,14.055c1.022,0.004,1.387,0.682,1.68,1.227
	c0.394,0.733,0.802,1.491,3.017,1.491l0.127-0.001c0.989-0.014,1.735-0.317,2.283-0.93c1.22-1.364,0.996-3.792,0.994-3.816
	c-0.023-0.159-0.727-4.406-8.124-4.681c-7.355,0.274-8.059,4.521-8.085,4.702c0,0.003-0.223,2.431,0.997,3.795
	c0.547,0.612,1.294,0.916,2.283,0.93l0.127,0.001c2.215,0,2.623-0.758,3.018-1.491c0.292-0.544,0.657-1.222,1.676-1.227l0,0l0,0
	l0.004,0.382l-0.004-0.382c0.001,0,0.002,0,0.004,0l0.003,0.228L12.162,14.055z"/>
<rect x="5.587" y="11.803" style="&st0;" width="13.283" height="0.285"/>
<polygon style="&st0;" points="4.188,11.945 6.477,11.086 5.904,11.945 6.477,12.805 "/>
<polygon style="&st0;" points="18.492,11.945 17.918,11.086 20.207,11.945 17.918,12.805 "/>
<path style="&st0;" d="M23.338,19.086H0.662V4.914h22.677V19.086z M0.912,18.836h22.177V5.164H0.912V18.836z"/>
</svg>
