<?xml version="1.0" encoding="utf-8"?>
<!-- Generator: Adobe Illustrator 16.0.3, SVG Export Plug-In . SVG Version: 6.00 Build 0)  -->
<!DOCTYPE svg PUBLIC "-//W3C//DTD SVG 1.1//EN" "http://www.w3.org/Graphics/SVG/1.1/DTD/svg11.dtd" [
	<!ENTITY st0 "fill:#1B1C20;">
	<!ENTITY st1 "fill:none;stroke:#98989C;stroke-width:0.083;stroke-miterlimit:10;">
	<!ENTITY st2 "fill:#454347;">
]>
<svg version="1.1" id="Layer_1" xmlns="http://www.w3.org/2000/svg" xmlns:xlink="http://www.w3.org/1999/xlink" x="0px" y="0px"
	 width="48px" height="24px" viewBox="0 0 48 24" style="enable-background:new 0 0 48 24;" xml:space="preserve">
<g>
	<path style="&st0;" d="M43.134,19.086H4.866V4.914h38.269V19.086z M5.116,18.836h37.769V5.164H5.116V18.836z"/>
	<path style="&st2;" d="M40.056,17.295c-0.197-0.004-0.408-0.109-0.593-0.297c-0.5-0.51-1.401-1.477-2.275-2.412
		c-1.262-1.354-2.693-2.889-3.207-3.361c-0.915-0.846-2.689-1.23-4.534-1.383c-1.102-0.086-5.149-0.447-5.639-0.457
		c-1.241-0.025-3.146,1.057-4.852,1.021c-0.379-0.01-0.639-0.027-0.662-0.029L7.041,9.871C7.045,9.402,7.11,8.617,7.214,7.764
		l23.003,1.266c0.783,0.033,3.03,0.346,4.041,1.355c1.411,1.418,4.604,4.818,5.918,6.244c0.152,0.166,0.286,0.396,0.199,0.533
		C40.324,17.246,40.198,17.299,40.056,17.295"/>
	<path style="&st1;" d="M40.056,17.295c-0.197-0.004-0.408-0.109-0.593-0.297c-0.5-0.51-1.401-1.477-2.275-2.412
		c-1.262-1.354-2.693-2.889-3.207-3.361c-0.915-0.846-2.689-1.23-4.534-1.383c-1.102-0.086-5.149-0.447-5.639-0.457
		c-1.241-0.025-3.146,1.057-4.852,1.021c-0.379-0.01-0.639-0.027-0.662-0.029L7.041,9.871C7.045,9.402,7.11,8.617,7.214,7.764
		l23.003,1.266c0.783,0.033,3.03,0.346,4.041,1.355c1.411,1.418,4.604,4.818,5.918,6.244c0.152,0.166,0.286,0.396,0.199,0.533
		C40.324,17.246,40.198,17.299,40.056,17.295z"/>
	<path style="&st2;" d="M7.958,17.295c0.198-0.004,0.408-0.109,0.593-0.297c0.5-0.51,1.402-1.477,2.275-2.412
		c1.262-1.354,2.693-2.889,3.207-3.361c0.915-0.846,2.688-1.23,4.534-1.383c1.102-0.086,5.148-0.447,5.639-0.457
		c1.241-0.025,3.146,1.057,4.852,1.021c0.379-0.01,0.639-0.027,0.661-0.029l11.256-0.506c-0.008-0.469-0.071-1.254-0.175-2.107
		L17.797,9.029c-0.784,0.033-3.029,0.346-4.04,1.355c-1.413,1.418-4.604,4.818-5.919,6.244c-0.152,0.166-0.287,0.396-0.2,0.533
		C7.691,17.246,7.817,17.299,7.958,17.295"/>
	<path style="&st1;" d="M7.958,17.295c0.198-0.004,0.408-0.109,0.593-0.297c0.5-0.51,1.402-1.477,2.275-2.412
		c1.262-1.354,2.693-2.889,3.207-3.361c0.915-0.846,2.688-1.23,4.534-1.383c1.102-0.086,5.148-0.447,5.639-0.457
		c1.241-0.025,3.146,1.057,4.852,1.021c0.379-0.01,0.639-0.027,0.661-0.029l11.256-0.506c-0.008-0.469-0.071-1.254-0.175-2.107
		L17.797,9.029c-0.784,0.033-3.029,0.346-4.04,1.355c-1.413,1.418-4.604,4.818-5.919,6.244c-0.152,0.166-0.287,0.396-0.2,0.533
		C7.691,17.246,7.817,17.299,7.958,17.295z"/>
	<path style="&st0;" d="M23.921,10.311c0.103-0.002,0.205-0.002,0.308-0.004c0.924-0.004,1.084,0.119,1.433,1.047
		c0.286,0.758,0.579,1.514,0.89,2.26c0.487,1.174,1.358,1.766,2.536,1.893c2.889,0.313,5.618,0.168,8.478-0.295
		c1.379-0.223,2.624-0.936,3.404-2.26c0.507-0.861,0.59-2.703,0.553-4.576c-0.021-1.033-0.813-1.365-1.473-1.416
		C39.314,6.9,34.808,6.4,29.188,7.037c0,0-3.171,0.434-5.267,0.398 M40.157,12.766c-0.387,0.795-1.525,1.85-4.747,2.004
		c-0.65,0.031-1.288,0.135-1.939,0.15c-1.063,0.025-2.146,0.055-3.2,0.01c-2.113-0.092-2.727-1.014-3.332-2.613
		c-0.345-0.912-0.534-1.857-0.479-2.857c0.031-0.584,0.346-0.865,0.804-1.051c1.52-0.617,3.124-0.758,4.72-0.924
		c2.346-0.242,5.774,0.01,7.454,0.166c0.839,0.08,1.273,0.539,1.273,1.445C40.71,10.533,40.779,11.488,40.157,12.766"/>
	<path style="&st0;" d="M23.92,10.311l-0.308-0.004c-0.924-0.004-1.084,0.119-1.433,1.047c-0.287,0.758-0.579,1.514-0.89,2.26
		c-0.488,1.174-1.358,1.766-2.536,1.893c-2.889,0.313-5.619,0.168-8.478-0.295c-1.378-0.223-2.624-0.936-3.404-2.26
		c-0.507-0.861-0.59-2.703-0.553-4.576C6.34,7.342,7.131,7.01,7.792,6.959C8.528,6.9,13.035,6.4,18.654,7.037
		c0,0,3.172,0.434,5.267,0.398 M7.685,12.766c0.387,0.795,1.526,1.85,4.747,2.004c0.65,0.031,1.288,0.135,1.94,0.15
		c1.062,0.025,2.145,0.055,3.199,0.01c2.114-0.092,2.726-1.014,3.332-2.613c0.345-0.912,0.534-1.857,0.479-2.857
		c-0.031-0.584-0.345-0.865-0.802-1.051C19.06,7.791,17.456,7.65,15.86,7.484c-2.345-0.242-5.774,0.01-7.453,0.166
		C7.568,7.73,7.131,8.189,7.131,9.096C7.13,10.533,7.064,11.488,7.685,12.766"/>
</g>
</svg>
