<?xml version="1.0" encoding="utf-8"?>
<!-- Generator: Adobe Illustrator 16.0.3, SVG Export Plug-In . SVG Version: 6.00 Build 0)  -->
<!DOCTYPE svg PUBLIC "-//W3C//DTD SVG 1.1//EN" "http://www.w3.org/Graphics/SVG/1.1/DTD/svg11.dtd" [
	<!ENTITY st0 "fill:#1B1C20;">
]>
<svg version="1.1" id="Layer_1" xmlns="http://www.w3.org/2000/svg" xmlns:xlink="http://www.w3.org/1999/xlink" x="0px" y="0px"
	 width="24px" height="24px" viewBox="0 0 24 24" style="enable-background:new 0 0 24 24;" xml:space="preserve">
<g>
	<path style="&st0;" d="M19.646,17.557H4.612v-0.867h15.033V17.557z M3.771,16.004H2.904V7.893h0.867V16.004z M21.096,15.875h-0.867
		V7.764h0.867V15.875z M19.565,7.311H4.532V6.443h15.033V7.311z"/>
	<rect x="11.848" y="8.91" style="&st0;" width="0.306" height="6.484"/>
	<polygon style="&st0;" points="12,9.467 11.134,9.467 12,7.295 12.866,9.467 	"/>
	<polygon style="&st0;" points="11.134,14.539 12,14.539 12.866,14.539 12,16.711 	"/>
	<polygon style="&st0;" points="3.71,12 5.879,11.133 5.879,12 5.879,12.867 	"/>
	<polygon style="&st0;" points="18.116,12 18.116,11.133 20.285,12 18.116,12.867 	"/>
	<rect x="5.879" y="11.754" style="&st0;" width="12.729" height="0.434"/>
	<path style="&st0;" d="M23.339,19.086H0.661V4.914h22.678V19.086z M0.911,18.836h22.178V5.164H0.911V18.836z"/>
</g>
</svg>
