<?xml version="1.0" encoding="utf-8"?>
<!-- Generator: Adobe Illustrator 16.0.3, SVG Export Plug-In . SVG Version: 6.00 Build 0)  -->
<!DOCTYPE svg PUBLIC "-//W3C//DTD SVG 1.1//EN" "http://www.w3.org/Graphics/SVG/1.1/DTD/svg11.dtd" [
	<!ENTITY st0 "fill:#1B1C20;">
	<!ENTITY st1 "fill-rule:evenodd;clip-rule:evenodd;fill:#1B1C20;">
	<!ENTITY st2 "fill:none;">
]>
<svg version="1.1" id="Layer_1" xmlns="http://www.w3.org/2000/svg" xmlns:xlink="http://www.w3.org/1999/xlink" x="0px" y="0px"
	 width="24px" height="24px" viewBox="0 0 24 24" style="enable-background:new 0 0 24 24;" xml:space="preserve">
<path style="&st0;" d="M12.555,12.193c0,1.553-1.263,2.815-2.816,2.815c-1.553,0-2.815-1.263-2.815-2.815s1.263-2.817,2.815-2.817
	C11.292,9.376,12.555,10.641,12.555,12.193 M7.355,12.193c0,1.313,1.069,2.383,2.383,2.383c1.314,0,2.383-1.069,2.383-2.383
	c0-1.314-1.068-2.383-2.383-2.383C8.425,9.811,7.355,10.879,7.355,12.193"/>
<path style="&st0;" d="M15.696,12.193c0,3.285-2.672,5.958-5.958,5.958c-3.285,0-5.958-2.673-5.958-5.958s2.673-5.958,5.958-5.958
	C13.024,6.235,15.696,8.908,15.696,12.193 M4.214,12.193c0,3.046,2.479,5.523,5.524,5.523c3.048,0,5.525-2.478,5.525-5.523
	c0-3.047-2.478-5.525-5.525-5.525C6.692,6.668,4.214,9.146,4.214,12.193"/>
<rect x="9.475" y="14.793" style="&st0;" width="7.912" height="0.216"/>
<rect x="9.475" y="9.376" style="&st0;" width="7.912" height="0.216"/>
<rect x="16.764" y="10.79" style="&st0;" width="0.217" height="2.988"/>
<polygon style="&st1;" points="16.872,11.144 16.439,11.144 16.872,10.059 17.307,11.144 "/>
<polygon style="&st1;" points="16.872,13.357 17.307,13.357 16.872,14.442 16.439,13.357 "/>
<rect x="3.781" y="6.226" style="&st2;" width="13.605" height="11.936"/>
<path style="&st0;" d="M23.339,19.086H0.662V4.913h22.677V19.086z M0.912,18.836h22.177V5.163H0.912V18.836z"/>
</svg>
