<?xml version="1.0" encoding="utf-8"?>
<!-- Generator: Adobe Illustrator 16.0.3, SVG Export Plug-In . SVG Version: 6.00 Build 0)  -->
<!DOCTYPE svg PUBLIC "-//W3C//DTD SVG 1.1//EN" "http://www.w3.org/Graphics/SVG/1.1/DTD/svg11.dtd" [
	<!ENTITY st0 "fill:#1B1C20;">
	<!ENTITY st1 "clip-path:url(#SVGID_2_);fill:#1B1C20;">
	<!ENTITY st2 "clip-path:url(#SVGID_2_);fill:none;stroke:#1B1C20;stroke-width:0.285;stroke-miterlimit:3.864;">
]>
<svg version="1.1" id="Layer_1" xmlns="http://www.w3.org/2000/svg" xmlns:xlink="http://www.w3.org/1999/xlink" x="0px" y="0px"
	 width="24px" height="24px" viewBox="0 0 24 24" style="enable-background:new 0 0 24 24;" xml:space="preserve">
<g>
	<g>
		<defs>
			<rect id="SVGID_1_" x="0.786" y="9.316" width="20.244" height="7.529"/>
		</defs>
		<clipPath id="SVGID_2_">
			<use xlink:href="#SVGID_1_"  style="overflow:visible;"/>
		</clipPath>
		<path style="&st1;" d="M-3.872,9.459h14.866c0,0,2.901-0.04,4.463,0.688c2.035,0.947,3.558,4.068,4.018,4.522
			c0.65,0.647,1.957,1.698,1.166,1.938c-0.962,0.297-1.338-0.121-1.752-1.008c-0.41-0.889-2.883-4.362-4.358-4.768
			c-1.477-0.402-3.502-0.362-3.502-0.362H-3.838L-3.872,9.459z"/>
		<path style="&st2;" d="M-3.872,9.459h14.866c0,0,2.901-0.04,4.463,0.688c2.035,0.947,3.558,4.068,4.018,4.522
			c0.65,0.647,1.957,1.698,1.166,1.938c-0.962,0.297-1.338-0.121-1.752-1.008c-0.41-0.889-2.883-4.362-4.358-4.768
			c-1.477-0.402-3.502-0.362-3.502-0.362H-3.838L-3.872,9.459z"/>
	</g>
	<path style="&st0;" d="M23.339,19.087H0.661V4.913h22.678V19.087z M0.911,5.163v13.674h22.178V5.163"/>
</g>
</svg>
