<?xml version="1.0" encoding="utf-8"?>
<!-- Generator: Adobe Illustrator 16.0.3, SVG Export Plug-In . SVG Version: 6.00 Build 0)  -->
<!DOCTYPE svg PUBLIC "-//W3C//DTD SVG 1.1//EN" "http://www.w3.org/Graphics/SVG/1.1/DTD/svg11.dtd" [
	<!ENTITY st0 "fill:#1B1C20;">
]>
<svg version="1.1" id="Layer_1" xmlns="http://www.w3.org/2000/svg" xmlns:xlink="http://www.w3.org/1999/xlink" x="0px" y="0px"
	 width="24px" height="24px" viewBox="0 0 24 24" style="enable-background:new 0 0 24 24;" xml:space="preserve">
<g>
	<path style="&st0;" d="M18.631,7.933c-0.41-0.168-2.81-0.977-7.436-0.526C6.122,7.899,4.08,8.69,3.951,9.934
		c-0.19,1.815,0.483,4.753,3.24,5.884c3.184,1.309,11.279,0.039,12.096-3.012C20.295,9.047,19.146,8.145,18.631,7.933 M3.236,9.845
		c0.211-2.03,3.173-2.758,7.896-3.218c4.724-0.459,7.232,0.359,7.752,0.575c1.023,0.422,2.151,1.876,1.093,5.823
		c-1.027,3.835-9.869,4.828-13.042,3.525C3.764,15.248,3.025,11.876,3.236,9.845"/>
	<path style="&st0;" d="M18.631,7.933c-0.41-0.169-2.81-0.977-7.436-0.527C6.122,7.899,4.08,8.69,3.951,9.934
		c-0.189,1.815,0.483,4.753,3.24,5.884c3.184,1.309,11.279,0.039,12.096-3.011C20.295,9.047,19.145,8.145,18.631,7.933z
		 M3.236,9.845c0.211-2.03,3.173-2.758,7.896-3.217c4.724-0.46,7.232,0.358,7.753,0.574c1.022,0.422,2.15,1.876,1.092,5.822
		c-1.027,3.836-9.868,4.829-13.041,3.525C3.764,15.248,3.025,11.876,3.236,9.845z"/>
	<path style="&st0;" d="M3.201,10.036c0,0-0.001-0.002-0.003-0.008"/>
	<path style="&st0;" d="M3.269,10.829c-0.009-0.005-0.91-0.558-2.537-0.591l0.026-1.268c2.013,0.042,3.147,0.762,3.195,0.792
		l-0.688,1.064l0.344-0.532L3.269,10.829z M23.174,10.238h-3.147V8.971h3.147V10.238z"/>
	<rect x="5.778" y="10.868" style="&st0;" width="12.105" height="0.293"/>
	<polygon style="&st0;" points="4.232,11.016 6.643,10.156 6.039,11.016 6.643,11.873 	"/>
	<polygon style="&st0;" points="17.558,11.016 16.956,10.156 19.366,11.016 16.956,11.873 	"/>
	<path style="&st0;" d="M23.268,19.087H0.591V4.913h22.677V19.087z M0.841,18.837h22.177V5.163H0.841V18.837z"/>
</g>
</svg>
