<?xml version="1.0" encoding="utf-8"?>
<!-- Generator: Adobe Illustrator 16.0.3, SVG Export Plug-In . SVG Version: 6.00 Build 0)  -->
<!DOCTYPE svg PUBLIC "-//W3C//DTD SVG 1.1//EN" "http://www.w3.org/Graphics/SVG/1.1/DTD/svg11.dtd" [
	<!ENTITY st0 "fill:#8B004E;">
	<!ENTITY st1 "fill:#F39B39;">
	<!ENTITY st2 "fill:#C9D300;">
	<!ENTITY st3 "fill:#005AA9;">
	<!ENTITY st4 "fill:#00A6EB;">
]>
<svg version="1.1" id="Layer_1" xmlns="http://www.w3.org/2000/svg" xmlns:xlink="http://www.w3.org/1999/xlink" x="0px" y="0px"
	 width="286px" height="48px" viewBox="0 0 286 48" style="enable-background:new 0 0 286 48;" xml:space="preserve">
<path id="CircleBlue" style="&st3;" d="M28.398,23.999c0,7.826-6.346,14.173-14.173,14.173c-7.828,0-14.174-6.347-14.174-14.173
	c0-7.826,6.346-14.172,14.174-14.172C22.053,9.827,28.398,16.173,28.398,23.999"/>
<path id="CircleOrange" style="&st1;" d="M63.833,23.999c0,7.826-6.347,14.173-14.174,14.173c-7.828,0-14.175-6.347-14.175-14.173
	c0-7.826,6.347-14.172,14.175-14.172C57.486,9.827,63.833,16.173,63.833,23.999"/>
<path id="CirclePurple" style="&st0;" d="M99.267,23.999c0,7.826-6.347,14.173-14.174,14.173c-7.828,0-14.175-6.347-14.175-14.173
	c0-7.826,6.347-14.172,14.175-14.172C92.92,9.827,99.267,16.173,99.267,23.999"/>
<path id="CircleGreen" style="&st2;" d="M134.698,23.999c0,7.826-6.346,14.173-14.174,14.173s-14.174-6.347-14.174-14.173
	c0-7.826,6.346-14.172,14.174-14.172S134.698,16.173,134.698,23.999"/>
<path id="LogoTipography" d="M252.31,25.115c0-0.002,0.003-0.002,0.005-0.002c0-0.002,0-0.002,0.002-0.006L252.31,25.115z
	 M263.422,29.752c-0.441,0.213-1.966,0.906-3.846,0.924c-2.1,0.019-3.424-0.817-3.962-1.608c-0.144-0.232-0.462-0.761-0.472-1.498
	c-0.011-1.15,0.863-2.041,2.597-2.643l0.008-0.004l0.009-0.004c0.217-0.088,0.438-0.152,0.67-0.218c0,0,0.07-0.022,0.126-0.039
	c0.242,0.24,0.938,0.932,0.938,0.932c0.554,0.556,1.197,1.06,1.782,1.615c0.819,0.779,1.698,1.555,2.551,2.301
	C263.723,29.572,263.532,29.695,263.422,29.752 M248.599,29.271c-0.859,1.069-2.176,1.182-3.563,1.207h-10.014v-5.881h10.021
	c1.637,0.031,2.857,0.139,3.629,1.247c0.471,0.664,0.471,1.357,0.471,1.654v0.014c0,0.029,0.001,0.06,0.001,0.091
	C249.144,28.236,248.967,28.783,248.599,29.271 M235.021,16.468h9.177c1.015,0,2.065,0,2.923,0.537
	c0.906,0.569,1.096,1.422,1.096,2.033c0,0.795-0.312,1.327-0.448,1.518c-0.663,0.953-1.743,1.027-3.079,1.027h-9.668V16.468z
	 M285.305,15.768l-0.078-0.07l0.01,0.007c-0.295-0.289-0.589-0.509-0.889-0.729c-1.896-1.352-4.471-2.109-7.663-2.254
	c-3.541-0.162-5.667,0.561-6.62,1.006c-0.002,0.002-0.014,0.008-0.014,0.008c-1.978,1.006-3.028,2.562-3.12,4.629
	c-0.023,0.535-0.1,2.168,1.352,3.621c1.474,1.494,3.022,1.754,6.687,2.246l0.16,0.019c1.507,0.178,4.648,0.543,5.922,1.177
	c0.608,0.297,1.321,0.886,1.272,2.013c-0.018,0.319-0.146,1.424-1.231,2.172c-0.773,0.53-2.258,1.131-4.928,0.994l-0.08-0.004
	c-1.094-0.05-4.646-0.394-6.557-1.273c0.003,0-0.398-0.209-0.832-0.439c0.297-0.438,0.67-1.034,0.998-1.789l-3.72,0.031
	c-0.39-0.328-1-0.846-1.011-0.852c-0.012-0.012-0.709-0.648-0.709-0.648c-0.811-0.737-1.64-1.495-2.436-2.259
	c-0.135-0.128-2.676-2.888-3.004-3.328c-0.491-0.689-0.561-1.152-0.563-1.478c-0.012-1.225,1.03-1.873,2.061-1.883
	c0.588-0.006,1.08,0.178,1.434,0.508l3.109-1.291c-0.521-0.684-1.109-1.057-1.301-1.166c-1.299-0.78-2.717-0.768-3.184-0.764
	c-3.312,0-4.65,1.82-5.073,2.604c-0.343,0.644-0.501,1.359-0.493,2.189c0.016,1.791,0.932,2.947,1.58,3.596
	c-1.503,0.578-3.129,1.273-4.07,2.754c-0.009,0.008-0.013,0.015-0.018,0.025c-0.238-0.482-0.547-0.916-0.929-1.295
	c-0.434-0.447-0.916-0.797-1.461-1.07c0.573-0.342,2.007-1.443,2.007-3.924c0-1.297-0.384-2.422-1.142-3.348
	c-1.404-1.664-3.567-1.982-5.072-2.076c-0.509-0.027-0.978-0.027-1.474-0.027h-12.817v20.178h12.817c2.513,0,5.954,0,7.747-2.715
	c0.11-0.168,0.206-0.332,0.29-0.496c0.122,0.209,0.258,0.42,0.416,0.631c0.927,1.25,2.813,2.73,6.519,2.695h0.024
	c2.949-0.029,5.137-1.004,6.178-1.582c0.222-0.121,0.581-0.408,0.964-0.711l0.047-0.039c0.511,0.307,1.123,0.617,1.528,0.817
	c0.637,0.308,1.498,0.582,2.332,0.832c2.246,0.676,5.442,0.845,5.472,0.847c1.292,0.057,2.462-0.035,2.845-0.068
	c2.689-0.186,4.863-1.172,6.125-2.777c0.518-0.639,1.151-1.75,1.227-3.436c0.02-0.469,0.083-1.889-0.955-3.358
	c-1.074-1.453-2.707-2.258-5.463-2.687c-1.059-0.188-2.141-0.324-3.184-0.459c-0.765-0.102-1.342-0.203-2.007-0.324l-0.758-0.135
	l-0.176-0.031c-1.041-0.17-2.113-0.352-2.604-1.223c-0.153-0.272-0.229-0.625-0.213-0.967c0.021-0.441,0.247-1.529,1.926-2.074
	c0.729-0.244,2.229-0.5,4.063-0.416c2.121,0.096,3.865,0.599,5.184,1.49l0.028,0.018L285.305,15.768z"/>
<path id="Logo" style="&st4;" d="M200.322,42.879c-10.704,0-19.41-8.709-19.41-19.413c0-10.703,8.706-19.411,19.41-19.411
	s19.412,8.708,19.412,19.411C219.734,34.17,211.026,42.879,200.322,42.879 M200.322,0.359c-12.737,0-23.104,10.367-23.104,23.107
	c0,12.743,10.367,23.108,23.104,23.108c12.742,0,23.108-10.365,23.108-23.108C223.431,10.726,213.064,0.359,200.322,0.359
	 M200.628,18.546c-2.101,0-3.676,0.41-3.739,0.428l-0.17,0.047v3.908l0.352-0.219c0.014-0.008,1.488-0.912,3.562-0.978
	c1.604-0.049,3.07,0.447,4.024,1.359c0.82,0.789,1.238,1.85,1.238,3.155c0,2.996-2.138,4.389-6.727,4.389
	c-4.801,0-8.318-1.309-8.466-1.364l-0.313-0.121v4.41h10.987c3.009,0,5.307-0.761,6.828-2.265c0.922-0.914,2.018-2.586,2.018-5.358
	c0-0.756-0.342-2.571-1.631-4.186C206.889,19.625,204.21,18.546,200.628,18.546 M210.177,13.302h-19.782v4.754l0.366-0.193
	c0.037-0.018,4.02-1.866,9.565-1.866c5.555,0,9.56,1.961,9.6,1.979c0,0.002,0.334,0.17,0.334,0.17v-4.844H210.177z"/>
<path id="QualityMade" d="M234.094,40.977c0-0.183,0.031-1.074-0.851-1.074c-0.265,0-0.512,0.092-0.675,0.338
	c-0.071,0.102-0.133,0.246-0.174,0.512c-0.051,0.439-0.041,1.086-0.041,2.088c0,0.552-0.01,1.103,0.01,1.648
	c0,0.307-0.01,0.727,0.144,1.002c0.144,0.256,0.44,0.359,0.716,0.359c0.432,0,0.625-0.226,0.707-0.378
	c0.154-0.338,0.144-0.911,0.154-1.729c0.01-0.328,0.02-0.646,0.03-0.973C234.125,42.165,234.104,41.57,234.094,40.977 M233.5,46.576
	c-0.111,0.012-0.298,0.02-0.573,0c-0.829-0.061-1.321-0.459-1.435-1.309c-0.041-0.337-0.061-0.921-0.061-1.752
	c0-0.695,0-1.402,0.02-2.087c0-0.483,0.021-1.086,0.277-1.516c0.215-0.377,0.644-0.77,1.588-0.77c1.055,0,1.422,0.567,1.555,0.995
	c0.145,0.431,0.164,0.994,0.164,1.966c0,0.717-0.02,1.444-0.051,2.17c-0.021,0.563-0.021,1.198-0.357,1.69
	c-0.164,0.246-0.317,0.345-0.421,0.396l0.89,0.758l-0.5,0.523L233.5,46.576z M240.389,44.652c-0.012,0.676-0.051,1.34-0.728,1.707
	c-0.43,0.236-0.89,0.229-1.043,0.229c-0.441,0-0.983-0.094-1.32-0.42c-0.071-0.073-0.217-0.237-0.296-0.493
	c-0.146-0.388-0.112-0.9-0.112-0.994c0-0.162,0-0.326-0.011-0.49v-4.935h0.91v4.791c0,0.615-0.012,1.054,0.079,1.31
	c0.116,0.266,0.341,0.369,0.433,0.4c0.092,0.03,0.173,0.051,0.358,0.051c0.275,0,0.48-0.041,0.655-0.267
	c0.029-0.039,0.093-0.119,0.123-0.254c0.031-0.145,0.04-0.492,0.04-0.891v-5.14h0.911V44.652z M243.594,40.6l-0.664,3.715h1.371
	L243.594,40.6z M244.709,46.482l-0.257-1.391h-1.68l-0.246,1.391h-0.929l1.557-7.227h0.9l1.596,7.227H244.709z M246.889,46.482
	v-7.227h0.921v6.42h2.12v0.807H246.889z M251.239,39.256h0.89v7.227h-0.89V39.256z M254.627,46.482v-6.418h-1.371v-0.809h3.635
	v0.809h-1.372v6.418H254.627z M259.254,46.482v-2.844l-1.535-4.383h0.953l1.074,3.616l1.073-3.616h0.954l-1.588,4.383v2.844H259.254
	z M269.552,46.482l0.124-6.539l-1.074,6.539h-1.138l-1.074-6.539l0.144,6.539h-0.881v-7.227h1.352l1.014,6.452l0.993-6.452h1.371
	v7.227H269.552z M273.618,40.6l-0.665,3.715h1.371L273.618,40.6z M274.731,46.482l-0.255-1.391h-1.679l-0.246,1.391h-0.93
	l1.555-7.227h0.901l1.598,7.227H274.731z M278.408,45.686c0.225-0.01,0.492,0,0.714-0.112c0.157-0.084,0.288-0.195,0.359-0.543
	c0.054-0.277,0.063-1.035,0.063-1.863c0-0.594,0-1.185-0.01-1.781c-0.021-0.574-0.043-0.869-0.256-1.086
	c-0.258-0.236-0.695-0.215-1.004-0.215h-0.459v5.6H278.408z M276.911,39.256h1.364c0.439,0,0.879-0.018,1.301,0.166
	c0.674,0.297,0.776,0.941,0.81,1.168c0.038,0.305,0.048,1.061,0.048,1.912c0,0.533-0.01,1.076-0.019,1.608
	c0,0.265-0.011,0.531-0.029,0.796c-0.055,0.575-0.228,1.096-0.759,1.383c-0.433,0.227-0.912,0.194-1.362,0.194h-1.354V39.256z
	 M282.327,46.482v-7.227h3.185v0.809h-2.284v2.152h1.996v0.819h-1.996v2.64h2.354v0.807H282.327z"/>
</svg>
