<?xml version="1.0" encoding="utf-8"?>
<!-- Generator: Adobe Illustrator 16.0.3, SVG Export Plug-In . SVG Version: 6.00 Build 0)  -->
<!DOCTYPE svg PUBLIC "-//W3C//DTD SVG 1.1//EN" "http://www.w3.org/Graphics/SVG/1.1/DTD/svg11.dtd" [
	<!ENTITY st0 "fill:#1A1A18;">
	<!ENTITY st1 "fill:#FFFFFF;">
	<!ENTITY st2 "fill:none;">
	<!ENTITY st3 "fill:#CDEAFC;">
	<!ENTITY st4 "fill:#00B4EC;">
	<!ENTITY st5 "fill:#A5DBF8;">
]>
<svg version="1.1" id="Layer_1" xmlns="http://www.w3.org/2000/svg" xmlns:xlink="http://www.w3.org/1999/xlink" x="0px" y="0px"
	 width="72px" height="72px" viewBox="0 0 72 72" style="enable-background:new 0 0 72 72;" xml:space="preserve">
<g>
	
		<rect x="30.529" y="28.053" transform="matrix(0.1601 -0.9871 0.9871 0.1601 -26.2497 84.784)" style="&st4;" width="12.331" height="59.527"/>
	<g>
		<path style="&st3;" d="M14.171,28.497c0-13.888,11.258-25.147,25.147-25.147c13.888,0,25.147,11.259,25.147,25.147
			c0,13.888-11.259,25.147-25.147,25.147C25.43,53.644,14.171,42.385,14.171,28.497"/>
		<path style="&st1;" d="M22.312,28.497c0-11.111,9.007-20.118,20.118-20.118c11.11,0,20.117,9.007,20.117,20.118
			c0,11.111-9.007,20.118-20.117,20.118C31.319,48.615,22.312,39.608,22.312,28.497"/>
		<path style="&st5;" d="M29.399,28.497c0-8.889,7.206-16.094,16.094-16.094c8.889,0,16.094,7.205,16.094,16.094
			c0,8.889-7.205,16.094-16.094,16.094C36.605,44.591,29.399,37.386,29.399,28.497"/>
		<path style="&st1;" d="M37.453,28.497c0-6.4,5.188-11.588,11.588-11.588c6.399,0,11.587,5.188,11.587,11.588
			S55.44,40.085,49.041,40.085C42.641,40.085,37.453,34.897,37.453,28.497"/>
		<path style="&st4;" d="M44.651,28.497c0-4.147,3.362-7.509,7.509-7.509s7.509,3.362,7.509,7.509s-3.362,7.509-7.509,7.509
			S44.651,32.644,44.651,28.497"/>
	</g>
	<rect x="13.776" y="3.335" style="&st2;" width="50.75" height="50.75"/>
	
		<rect x="29.077" y="23.961" transform="matrix(0.1261 -0.992 0.992 0.1261 -22.4978 81.9125)" style="&st3;" width="12.331" height="59.528"/>
	<g>
		<path style="&st0;" d="M16.766,48.312l-0.631,5.592l-0.579-0.065l0.631-5.592l-1.919-0.217l0.058-0.51l4.425,0.5l-0.058,0.51
			L16.766,48.312z"/>
		<path style="&st0;" d="M19.347,54.372c-1.063-0.12-1.76-0.995-1.61-2.326c0.145-1.279,0.949-2.134,2.133-2
			c1.288,0.146,1.717,1.306,1.617,2.353C21.313,53.937,20.246,54.473,19.347,54.372z M19.813,50.476
			c-0.743-0.084-1.393,0.395-1.532,1.631c-0.144,1.271,0.478,1.743,1.125,1.815c0.64,0.072,1.387-0.263,1.536-1.586
			C21.089,51.041,20.462,50.549,19.813,50.476z"/>
		<path style="&st0;" d="M23.248,50.532l-0.076,0.674c0.165-0.296,0.562-0.707,1.331-0.62c1.503,0.17,1.552,1.76,1.485,2.355
			c-0.07,0.623-0.545,2.109-1.971,1.949c-0.717-0.081-1.058-0.558-1.156-0.928l-0.325,2.879l-0.501-0.057l0.712-6.31L23.248,50.532z
			 M22.999,52.744c-0.063,0.563-0.007,0.997,0.306,1.321c0.25,0.265,0.552,0.308,0.69,0.323c0.95,0.107,1.383-0.78,1.473-1.575
			c0.086-0.761-0.146-1.662-1.104-1.771c-0.994-0.112-1.27,0.863-1.341,1.494L22.999,52.744z"/>
		<path style="&st0;" d="M31.978,49.512c1.071,0.121,1.406,0.264,1.7,0.683c0.142,0.209,0.333,0.615,0.263,1.229
			c-0.043,0.381-0.192,0.775-0.47,1.067c-0.495,0.504-1.128,0.459-2.148,0.344l-1.616-0.182l-0.311,2.748l-0.553-0.063l0.689-6.102
			L31.978,49.512z M29.765,52.143l2.134,0.24c0.761,0.086,1.382-0.142,1.482-1.032c0.012-0.104,0.046-0.406-0.095-0.711
			c-0.232-0.499-0.714-0.57-1.19-0.624l-2.065-0.233L29.765,52.143z"/>
		<path style="&st0;" d="M35.005,51.859l-0.074,0.656c0.27-0.459,0.703-0.646,1.212-0.589c0.069,0.008,0.208,0.023,0.353,0.057
			l-0.052,0.458c-0.102-0.028-0.205-0.049-0.325-0.063c-0.882-0.1-1.231,0.518-1.325,1.347l-0.255,2.256l-0.51-0.058l0.465-4.122
			L35.005,51.859z"/>
		<path style="&st0;" d="M38.306,56.511c-1.063-0.12-1.761-0.995-1.61-2.326c0.145-1.279,0.95-2.134,2.133-2
			c1.288,0.146,1.718,1.306,1.617,2.354C40.272,56.077,39.205,56.613,38.306,56.511z M38.772,52.616
			c-0.744-0.084-1.393,0.395-1.532,1.631c-0.144,1.271,0.477,1.743,1.125,1.816c0.64,0.072,1.386-0.264,1.536-1.586
			C40.047,53.18,39.42,52.689,38.772,52.616z"/>
		<path style="&st0;" d="M43.945,57.042l0.084-0.743c-0.252,0.523-0.812,0.758-1.365,0.695c-1.028-0.116-1.597-1.126-1.458-2.353
			c0.139-1.228,0.933-2.065,2.022-1.943c0.536,0.061,1.007,0.394,1.109,0.878l0.297-2.636l0.501,0.057l-0.689,6.102L43.945,57.042z
			 M42.796,56.519c0.666,0.075,1.254-0.331,1.382-1.463l0.025-0.225c0.154-1.365-0.597-1.617-1.003-1.663
			c-0.778-0.087-1.327,0.516-1.442,1.536C41.621,55.922,42.157,56.447,42.796,56.519z"/>
		<path style="&st0;" d="M48.44,57.55l0.084-0.743c-0.282,0.484-0.708,0.77-1.408,0.69c-0.57-0.064-1.054-0.426-1.171-1.017
			c-0.055-0.295-0.037-0.688,0.037-1.335l0.228-2.022l0.519,0.059l-0.241,2.135c-0.057,0.501-0.079,0.77-0.044,1.01
			c0.041,0.259,0.182,0.634,0.788,0.702c0.207,0.023,0.649,0.064,1.028-0.349c0.29-0.316,0.364-0.746,0.412-1.17l0.235-2.083
			l0.51,0.058l-0.465,4.123L48.44,57.55z"/>
		<path style="&st0;" d="M53.627,57.208c-0.311,0.499-0.833,0.939-1.766,0.834c-1.167-0.132-1.795-1.078-1.652-2.349
			c0.152-1.349,1.069-2.103,2.227-1.972c0.882,0.1,1.296,0.619,1.448,1.214l-0.488,0.059c-0.13-0.479-0.553-0.763-1.037-0.817
			c-0.951-0.107-1.491,0.654-1.593,1.554c-0.104,0.925,0.222,1.758,1.163,1.864c0.519,0.059,0.9-0.144,1.193-0.565L53.627,57.208z"
			/>
		<path style="&st0;" d="M55.326,57.443c-0.026,0.233-0.022,0.506,0.28,0.54c0.208,0.023,0.431-0.101,0.6-0.195l-0.059,0.519
			c-0.122,0.074-0.35,0.153-0.704,0.113c-0.147-0.017-0.526-0.068-0.615-0.446c-0.036-0.152-0.01-0.456,0.015-0.681l0.308-2.723
			l-0.864-0.097l0.049-0.433l0.864,0.098l0.198-1.755l0.493,0.056l-0.198,1.755l0.907,0.103l-0.048,0.432l-0.907-0.103
			L55.326,57.443z"/>
	</g>
</g>
</svg>
