<?xml version="1.0" encoding="utf-8"?>
<!-- Generator: Adobe Illustrator 16.0.3, SVG Export Plug-In . SVG Version: 6.00 Build 0)  -->
<!DOCTYPE svg PUBLIC "-//W3C//DTD SVG 1.1//EN" "http://www.w3.org/Graphics/SVG/1.1/DTD/svg11.dtd" [
	<!ENTITY st0 "fill:#1B1C20;">
	<!ENTITY st1 "fill-rule:evenodd;clip-rule:evenodd;fill:#1B1C20;">
]>
<svg version="1.1" id="Layer_1" xmlns="http://www.w3.org/2000/svg" xmlns:xlink="http://www.w3.org/1999/xlink" x="0px" y="0px"
	 width="24px" height="24px" viewBox="0 0 24 24" style="enable-background:new 0 0 24 24;" xml:space="preserve">
<g>
	<path style="&st1;" d="M18.561,7.869c-0.41-0.17-2.81-0.977-7.436-0.527C6.051,7.834,4.009,8.627,3.88,9.869
		c-0.19,1.814,0.483,4.752,3.24,5.885c3.184,1.307,11.28,0.039,12.097-3.012C20.225,8.982,19.075,8.08,18.561,7.869 M3.166,9.781
		c0.211-2.031,3.173-2.758,7.896-3.219c4.724-0.459,7.233,0.359,7.752,0.574c1.023,0.422,2.151,1.877,1.093,5.824
		c-1.027,3.836-9.869,4.828-13.042,3.525C3.693,15.184,2.955,11.813,3.166,9.781"/>
	<path style="&st0;" d="M18.561,7.869c-0.41-0.17-2.81-0.979-7.436-0.527C6.051,7.834,4.009,8.627,3.88,9.869
		c-0.189,1.814,0.483,4.752,3.24,5.885c3.184,1.307,11.279,0.039,12.097-3.012C20.225,8.982,19.075,8.08,18.561,7.869z M3.166,9.779
		c0.211-2.029,3.173-2.758,7.896-3.217c4.724-0.459,7.232,0.359,7.753,0.574c1.022,0.422,2.15,1.877,1.092,5.824
		c-1.027,3.836-9.869,4.828-13.042,3.525C3.693,15.184,2.954,11.811,3.166,9.779z M3.13,9.973c0,0-0.001-0.004-0.003-0.008"/>
	<path style="&st0;" d="M3.199,10.766c-0.009-0.006-0.91-0.557-2.537-0.592l0.026-1.268c2.013,0.043,3.147,0.762,3.194,0.793
		L3.199,10.766z"/>
	<rect x="20.191" y="8.906" style="&st0;" width="3.147" height="1.268"/>
	<rect x="11.478" y="9.061" style="&st0;" width="0.292" height="5.365"/>
	<polygon style="&st0;" points="10.72,13.689 11.625,14.264 12.527,13.689 11.625,15.98 	"/>
	<polygon style="&st0;" points="11.624,9.252 10.719,9.824 11.624,7.535 12.528,9.824 	"/>
	<path style="&st0;" d="M23.338,19.086H0.662V4.914h22.677V19.086z M0.912,18.836h22.177V5.164H0.912V18.836z"/>
</g>
</svg>
