<?xml version="1.0" encoding="utf-8"?>
<!-- Generator: Adobe Illustrator 16.0.3, SVG Export Plug-In . SVG Version: 6.00 Build 0)  -->
<!DOCTYPE svg PUBLIC "-//W3C//DTD SVG 1.1//EN" "http://www.w3.org/Graphics/SVG/1.1/DTD/svg11.dtd" [
	<!ENTITY st0 "fill:#1B1C20;">
	<!ENTITY st1 "clip-path:url(#SVGID_2_);fill-rule:evenodd;clip-rule:evenodd;fill:#1B1C20;">
	<!ENTITY st2 "clip-path:url(#SVGID_2_);fill:#1B1C20;">
	<!ENTITY st3 "fill-rule:evenodd;clip-rule:evenodd;fill:#1B1C20;">
	<!ENTITY st4 "fill:#FFFFFF;">
	<!ENTITY st5 "fill:none;">
]>
<svg version="1.1" id="Layer_1" xmlns="http://www.w3.org/2000/svg" xmlns:xlink="http://www.w3.org/1999/xlink" x="0px" y="0px"
	 width="24px" height="24px" viewBox="0 0 24 24" style="enable-background:new 0 0 24 24;" xml:space="preserve">
<rect x="0.702" y="5.038" style="&st4;" width="22.427" height="13.923"/>
<g>
	<defs>
		<rect id="SVGID_1_" x="0.702" y="6.094" width="22.427" height="10.97"/>
	</defs>
	<clipPath id="SVGID_2_">
		<use xlink:href="#SVGID_1_"  style="overflow:visible;"/>
	</clipPath>
	<path style="&st1;" d="M-5.342,7.759c-0.482,0.211-1.565,1.104-0.618,4.826c0.769,3.018,8.38,4.273,11.375,2.98
		c2.592-1.121,3.224-4.029,3.048-5.824C8.341,8.511,6.42,7.729,1.649,7.238C-2.703,6.794-4.959,7.593-5.342,7.759 M9.133,9.653
		c0.201,2.01-0.496,5.345-3.48,6.635c-2.983,1.29-11.296,0.309-12.261-3.487c-0.995-3.908,0.065-5.348,1.027-5.766
		C-5.093,6.823-2.73,6.013,1.71,6.467C6.151,6.923,8.935,7.645,9.133,9.653 M29.341,7.759c0.482,0.211,1.564,1.104,0.618,4.826
		c-0.771,3.018-8.382,4.273-11.376,2.98c-2.591-1.121-3.224-4.029-3.047-5.824c0.123-1.23,2.042-2.012,6.813-2.503
		C26.701,6.794,28.959,7.593,29.341,7.759 M14.865,9.653c-0.199,2.01,0.497,5.345,3.479,6.635c2.984,1.29,11.298,0.309,12.264-3.487
		c0.995-3.908-0.066-5.348-1.027-5.766c-0.49-0.212-2.851-1.022-7.291-0.568C17.849,6.923,15.064,7.645,14.865,9.653"/>
	<path style="&st2;" d="M-5.342,7.759c-0.482,0.211-1.565,1.104-0.618,4.826c0.769,3.018,8.38,4.273,11.375,2.98
		c2.592-1.121,3.224-4.029,3.048-5.824C8.341,8.511,6.42,7.729,1.649,7.238C-2.703,6.794-4.959,7.593-5.342,7.759z M9.133,9.653
		c0.201,2.01-0.496,5.345-3.48,6.635c-2.983,1.29-11.296,0.309-12.261-3.487c-0.995-3.908,0.065-5.348,1.027-5.766
		C-5.093,6.823-2.73,6.013,1.71,6.467C6.151,6.923,8.935,7.645,9.133,9.653z M29.341,7.759c0.482,0.211,1.564,1.104,0.618,4.826
		c-0.771,3.018-8.382,4.273-11.376,2.98c-2.591-1.121-3.224-4.029-3.047-5.824c0.123-1.23,2.042-2.012,6.813-2.503
		C26.701,6.794,28.959,7.593,29.341,7.759z M14.865,9.653c-0.199,2.01,0.497,5.345,3.479,6.635
		c2.984,1.29,11.298,0.309,12.264-3.487c0.995-3.908-0.066-5.348-1.027-5.766c-0.49-0.212-2.851-1.022-7.291-0.568
		C17.849,6.923,15.064,7.645,14.865,9.653z"/>
</g>
<path style="&st3;" d="M14.832,10.563c0,0-2.762-2.057-5.721-0.012V9.718c2.957-2.046,5.719,0.01,5.721,0.011V10.563z"/>
<path style="&st0;" d="M14.832,10.563c0,0-2.762-2.057-5.721-0.012V9.718c2.957-2.046,5.719,0.01,5.721,0.011V10.563z"/>
<rect x="10.33" y="12.714" style="&st0;" width="3.097" height="0.285"/>
<polygon style="&st3;" points="10.649,12.856 11.223,13.715 8.933,12.856 11.223,11.998 "/>
<polygon style="&st3;" points="13.236,12.856 12.662,11.998 14.953,12.856 12.662,13.715 "/>
<rect x="0.702" y="5.037" style="&st5;" width="22.427" height="13.924"/>
<path style="&st0;" d="M23.254,19.086H0.577V4.913h22.677V19.086z M0.827,18.836h22.177V5.163H0.827V18.836z"/>
</svg>
