<?xml version="1.0" encoding="utf-8"?>
<!-- Generator: Adobe Illustrator 16.0.3, SVG Export Plug-In . SVG Version: 6.00 Build 0)  -->
<!DOCTYPE svg PUBLIC "-//W3C//DTD SVG 1.1//EN" "http://www.w3.org/Graphics/SVG/1.1/DTD/svg11.dtd" [
	<!ENTITY st0 "fill:#1B1C20;">
	<!ENTITY st1 "fill:none;stroke:#1B1C20;stroke-width:0.33;stroke-miterlimit:3.864;">
]>
<svg version="1.1" id="Layer_1" xmlns="http://www.w3.org/2000/svg" xmlns:xlink="http://www.w3.org/1999/xlink" x="0px" y="0px"
	 width="24px" height="24px" viewBox="0 0 24 24" style="enable-background:new 0 0 24 24;" xml:space="preserve">
<path style="&st0;" d="M18.66,7.936c-0.418-0.181-2.874-1.052-7.607-0.567C5.863,7.9,3.774,8.752,3.643,10.09
	c-0.194,1.955,0.494,5.117,3.314,6.337c3.256,1.407,11.538,0.04,12.374-3.243C20.361,9.135,19.184,8.164,18.66,7.936 M2.911,9.995
	c0.216-2.187,3.245-2.97,8.077-3.465c4.832-0.495,7.399,0.387,7.932,0.618c1.045,0.453,2.199,2.021,1.118,6.271
	c-1.05,4.13-10.095,5.198-13.34,3.795C3.452,15.812,2.695,12.181,2.911,9.995 M2.875,10.201c0,0-0.001-0.003-0.003-0.008"/>
<path style="&st1;" d="M18.66,7.936c-0.418-0.181-2.874-1.052-7.607-0.567C5.863,7.9,3.774,8.752,3.643,10.09
	c-0.194,1.955,0.494,5.117,3.314,6.337c3.256,1.407,11.538,0.04,12.374-3.243C20.361,9.135,19.184,8.164,18.66,7.936z M2.911,9.995
	c0.216-2.187,3.245-2.97,8.077-3.465c4.832-0.495,7.399,0.387,7.932,0.618c1.045,0.453,2.199,2.021,1.118,6.271
	c-1.05,4.13-10.095,5.198-13.34,3.795C3.452,15.812,2.695,12.181,2.911,9.995z M2.875,10.201c0,0-0.001-0.003-0.003-0.008"/>
<path style="&st0;" d="M2.74,10.996c-0.007-0.005-0.691-0.446-1.94-0.588l0.073-1.517c1.568,0.179,2.511,0.946,2.605,1.01
	L2.74,10.996z"/>
<rect x="20" y="9.076" style="&st0;" width="3.217" height="1.32"/>
<polygon style="&st0;" points="11.68,14.996 11.446,14.996 11.446,12.226 5.751,12.226 5.751,11.991 11.446,11.991 11.446,9.22 
	11.68,9.22 11.68,11.991 17.63,11.991 17.63,12.226 11.68,12.226 "/>
<polygon style="&st0;" points="17.444,12.125 16.77,11.113 19.464,12.125 16.77,13.135 "/>
<polygon style="&st0;" points="3.907,12.124 6.603,11.113 5.929,12.124 6.603,13.135 "/>
<polygon style="&st0;" points="10.563,14.047 11.573,14.722 12.585,14.047 11.573,16.743 "/>
<polygon style="&st0;" points="11.574,9.525 10.563,10.199 11.574,7.504 12.585,10.199 "/>
<path style="&st0;" d="M23.338,19.086H0.662V4.914h22.677V19.086z M0.912,18.836h22.177V5.164H0.912V18.836z"/>
</svg>
