<?xml version="1.0" encoding="utf-8"?>
<!-- Generator: Adobe Illustrator 16.0.3, SVG Export Plug-In . SVG Version: 6.00 Build 0)  -->
<!DOCTYPE svg PUBLIC "-//W3C//DTD SVG 1.1//EN" "http://www.w3.org/Graphics/SVG/1.1/DTD/svg11.dtd" [
	<!ENTITY st0 "fill:#1B1C20;">
	<!ENTITY st1 "fill:none;">
]>
<svg version="1.1" id="Layer_1" xmlns="http://www.w3.org/2000/svg" xmlns:xlink="http://www.w3.org/1999/xlink" x="0px" y="0px"
	 width="24px" height="24px" viewBox="0 0 24 24" style="enable-background:new 0 0 24 24;" xml:space="preserve">
<rect x="16.743" y="7.755" style="&st0;" width="0.217" height="8.835"/>
<polygon style="&st0;" points="16.417,7.98 16.852,7.98 17.285,7.98 16.852,6.895 "/>
<polygon style="&st0;" points="16.852,16.322 16.416,16.322 16.852,17.409 17.285,16.322 "/>
<path style="&st0;" d="M12.567,12.194c0,1.556-1.264,2.82-2.819,2.82s-2.821-1.265-2.821-2.82s1.266-2.82,2.821-2.82
	S12.567,10.639,12.567,12.194 M7.361,12.194c0,1.315,1.07,2.387,2.387,2.387c1.315,0,2.387-1.071,2.387-2.387
	c0-1.316-1.071-2.387-2.387-2.387C8.432,9.808,7.361,10.878,7.361,12.194"/>
<path style="&st0;" d="M15.715,12.194c0,3.291-2.678,5.968-5.968,5.968S3.78,15.485,3.78,12.194c0-3.29,2.677-5.968,5.967-5.968
	S15.715,8.904,15.715,12.194 M4.214,12.194c0,3.051,2.482,5.534,5.533,5.534s5.534-2.483,5.534-5.534
	c0-3.052-2.483-5.533-5.534-5.533S4.214,9.143,4.214,12.194"/>
<rect x="9.937" y="17.945" style="&st0;" width="7.45" height="0.216"/>
<rect x="9.407" y="6.227" style="&st0;" width="7.979" height="0.217"/>
<rect x="3.781" y="6.227" style="&st1;" width="13.605" height="11.935"/>
<path style="&st0;" d="M23.339,19.087H0.662V4.913h22.677V19.087z M0.912,18.837h22.177V5.163H0.912V18.837z"/>
</svg>
