<?xml version="1.0" encoding="utf-8"?>
<!-- Generator: Adobe Illustrator 16.0.3, SVG Export Plug-In . SVG Version: 6.00 Build 0)  -->
<!DOCTYPE svg PUBLIC "-//W3C//DTD SVG 1.1//EN" "http://www.w3.org/Graphics/SVG/1.1/DTD/svg11.dtd" [
	<!ENTITY st0 "fill:#1B1C20;">
]>
<svg version="1.1" id="Layer_1" xmlns="http://www.w3.org/2000/svg" xmlns:xlink="http://www.w3.org/1999/xlink" x="0px" y="0px"
	 width="24px" height="24px" viewBox="0 0 24 24" style="enable-background:new 0 0 24 24;" xml:space="preserve">
<path style="&st0;" d="M11.816,18.027l-0.065-0.001l-6.308-2.037l-0.12-0.12V7.723l0.123-0.136l6.344-1.738l0.068,0.004l6.437,1.841
	l0.115,0.134l-0.002,8.159L18.326,16.1L11.816,18.027z M5.749,15.642l5.85,1.889V9.833l-5.85-1.721V15.642z M12.024,9.842v7.681
	l5.958-1.765l0.002-7.6L12.024,9.842z M6.234,7.812l5.59,1.646l5.579-1.576l-5.587-1.599L6.234,7.812z"/>
<path style="&st0;" d="M20.858,20.858H3.142V3.142h17.717V20.858z M3.392,20.608h17.217V3.392H3.392V20.608z"/>
</svg>
